<svg width="50" height="50" viewBox="0 0 50 50" fill="none" xmlns="http://www.w3.org/2000/svg">
<rect width="50" height="50" rx="25" fill="#D22730"/>
<g clip-path="url(#clip0_0_1)">
<path d="M25.36 10C30.0775 10 34.4455 12.0925 37.342 15.616C37.4245 15.7159 37.4861 15.8313 37.5231 15.9555C37.5601 16.0797 37.5717 16.21 37.5573 16.3388C37.5429 16.4675 37.5027 16.592 37.4392 16.705C37.3757 16.8179 37.2901 16.9168 37.1875 16.996C36.9787 17.1597 36.7144 17.2355 36.4506 17.2075C36.1868 17.1795 35.9443 17.0498 35.7745 16.846C34.508 15.3118 32.9166 14.0779 31.1154 13.2334C29.3142 12.3888 27.3479 11.9545 25.3585 11.962C17.986 11.962 12.0085 17.8 12.0085 25C12.0085 32.2 17.986 38.038 25.3585 38.038C27.3766 38.0457 29.3705 37.599 31.1923 36.7309C33.0142 35.8628 34.6172 34.5957 35.8825 33.0235C36.0494 32.8176 36.29 32.6847 36.5532 32.6531C36.8164 32.6214 37.0815 32.6935 37.2925 32.854C37.396 32.9318 37.4827 33.0296 37.5476 33.1416C37.6126 33.2536 37.6543 33.3775 37.6704 33.506C37.6865 33.6344 37.6766 33.7648 37.6413 33.8893C37.606 34.0139 37.5461 34.1301 37.465 34.231C34.573 37.846 30.1465 40 25.36 40C16.8745 40 10 33.2845 10 25C10 16.7155 16.876 10 25.36 10ZM35.647 20.74L39.706 24.8005C40.099 25.192 40.1065 25.8205 39.724 26.2045L35.758 30.169C35.5698 30.3532 35.3162 30.455 35.0529 30.4522C34.7896 30.4494 34.5382 30.3421 34.354 30.154C34.2605 30.0629 34.1859 29.9542 34.1345 29.8342C34.0831 29.7142 34.0558 29.5852 34.0543 29.4547C34.0528 29.3241 34.077 29.1946 34.1256 29.0734C34.1742 28.9522 34.2462 28.8418 34.3375 28.7485L36.658 26.428H21.193C21.0626 26.4296 20.9332 26.4055 20.8121 26.357C20.691 26.3086 20.5806 26.2368 20.4873 26.1457C20.394 26.0546 20.3195 25.946 20.2682 25.8261C20.2168 25.7062 20.1896 25.5774 20.188 25.447C20.188 24.904 20.638 24.4645 21.193 24.4645H36.5965L34.2595 22.1275C34.0712 21.9435 33.9636 21.6922 33.9605 21.4289C33.9574 21.1656 34.059 20.9119 34.243 20.7235C34.4314 20.5395 34.6851 20.4379 34.9484 20.441C35.2117 20.4441 35.463 20.5517 35.647 20.74V20.74Z" fill="#FAFBFB"/>
</g>
<defs>
<clipPath id="clip0_0_1">
<rect width="30" height="30" fill="white" transform="translate(10 10)"/>
</clipPath>
</defs>
</svg>
